<mxfile host="app.diagrams.net" modified="2022-07-22T04:49:06.879Z" agent="5.0 (Windows NT 10.0; Win64; x64) AppleWebKit/537.36 (KHTML, like Gecko) Chrome/103.0.5060.114 Safari/537.36 Edg/103.0.1264.62" etag="JDgq_YfsyqtxY79lwYV6" version="20.1.3" type="github">
  <diagram id="M7MpHUqOiyoABDjcpOF4" name="Page-1">
    <mxGraphModel dx="751" dy="690" grid="1" gridSize="13" guides="1" tooltips="1" connect="1" arrows="1" fold="1" page="1" pageScale="1" pageWidth="980" pageHeight="690" math="0" shadow="0">
      <root>
        <mxCell id="0" />
        <mxCell id="1" parent="0" />
        <mxCell id="mPQyHkxRcnNyKBoM3Fjj-2" value="ProgLang" style="swimlane;fontStyle=3;childLayout=stackLayout;horizontal=1;startSize=26;fillColor=none;horizontalStack=0;resizeParent=1;resizeParentMax=0;resizeLast=0;collapsible=1;marginBottom=0;" vertex="1" parent="1">
          <mxGeometry x="180" y="60" width="140" height="104" as="geometry" />
        </mxCell>
        <mxCell id="mPQyHkxRcnNyKBoM3Fjj-3" value="GetUnit() string" style="text;strokeColor=none;fillColor=none;align=left;verticalAlign=top;spacingLeft=4;spacingRight=4;overflow=hidden;rotatable=0;points=[[0,0.5],[1,0.5]];portConstraint=eastwest;fontStyle=2" vertex="1" parent="mPQyHkxRcnNyKBoM3Fjj-2">
          <mxGeometry y="26" width="140" height="26" as="geometry" />
        </mxCell>
        <mxCell id="mPQyHkxRcnNyKBoM3Fjj-4" value="GetPradigm() string" style="text;strokeColor=none;fillColor=none;align=left;verticalAlign=top;spacingLeft=4;spacingRight=4;overflow=hidden;rotatable=0;points=[[0,0.5],[1,0.5]];portConstraint=eastwest;fontStyle=2" vertex="1" parent="mPQyHkxRcnNyKBoM3Fjj-2">
          <mxGeometry y="52" width="140" height="26" as="geometry" />
        </mxCell>
        <mxCell id="mPQyHkxRcnNyKBoM3Fjj-5" value="GetName() string" style="text;strokeColor=none;fillColor=none;align=left;verticalAlign=top;spacingLeft=4;spacingRight=4;overflow=hidden;rotatable=0;points=[[0,0.5],[1,0.5]];portConstraint=eastwest;fontStyle=2" vertex="1" parent="mPQyHkxRcnNyKBoM3Fjj-2">
          <mxGeometry y="78" width="140" height="26" as="geometry" />
        </mxCell>
        <mxCell id="mPQyHkxRcnNyKBoM3Fjj-6" value="ProceduralInt" style="swimlane;fontStyle=3;childLayout=stackLayout;horizontal=1;startSize=26;fillColor=none;horizontalStack=0;resizeParent=1;resizeParentMax=0;resizeLast=0;collapsible=1;marginBottom=0;" vertex="1" parent="1">
          <mxGeometry x="61" y="190" width="140" height="78" as="geometry" />
        </mxCell>
        <mxCell id="mPQyHkxRcnNyKBoM3Fjj-7" value="GetUnit() string" style="text;strokeColor=none;fillColor=none;align=left;verticalAlign=top;spacingLeft=4;spacingRight=4;overflow=hidden;rotatable=0;points=[[0,0.5],[1,0.5]];portConstraint=eastwest;fontStyle=2" vertex="1" parent="mPQyHkxRcnNyKBoM3Fjj-6">
          <mxGeometry y="26" width="140" height="26" as="geometry" />
        </mxCell>
        <mxCell id="mPQyHkxRcnNyKBoM3Fjj-8" value="GetPradigm() string" style="text;strokeColor=none;fillColor=none;align=left;verticalAlign=top;spacingLeft=4;spacingRight=4;overflow=hidden;rotatable=0;points=[[0,0.5],[1,0.5]];portConstraint=eastwest;fontStyle=2" vertex="1" parent="mPQyHkxRcnNyKBoM3Fjj-6">
          <mxGeometry y="52" width="140" height="26" as="geometry" />
        </mxCell>
        <mxCell id="mPQyHkxRcnNyKBoM3Fjj-10" value="ObjectOrientInte" style="swimlane;fontStyle=3;childLayout=stackLayout;horizontal=1;startSize=26;fillColor=none;horizontalStack=0;resizeParent=1;resizeParentMax=0;resizeLast=0;collapsible=1;marginBottom=0;" vertex="1" parent="1">
          <mxGeometry x="320" y="190" width="140" height="78" as="geometry" />
        </mxCell>
        <mxCell id="mPQyHkxRcnNyKBoM3Fjj-11" value="GetUnit() string" style="text;strokeColor=none;fillColor=none;align=left;verticalAlign=top;spacingLeft=4;spacingRight=4;overflow=hidden;rotatable=0;points=[[0,0.5],[1,0.5]];portConstraint=eastwest;fontStyle=2" vertex="1" parent="mPQyHkxRcnNyKBoM3Fjj-10">
          <mxGeometry y="26" width="140" height="26" as="geometry" />
        </mxCell>
        <mxCell id="mPQyHkxRcnNyKBoM3Fjj-12" value="GetPradigm() string" style="text;strokeColor=none;fillColor=none;align=left;verticalAlign=top;spacingLeft=4;spacingRight=4;overflow=hidden;rotatable=0;points=[[0,0.5],[1,0.5]];portConstraint=eastwest;fontStyle=2" vertex="1" parent="mPQyHkxRcnNyKBoM3Fjj-10">
          <mxGeometry y="52" width="140" height="26" as="geometry" />
        </mxCell>
        <mxCell id="mPQyHkxRcnNyKBoM3Fjj-14" value="" style="endArrow=block;dashed=1;endFill=0;endSize=12;html=1;rounded=0;entryX=0.437;entryY=1.115;entryDx=0;entryDy=0;entryPerimeter=0;" edge="1" parent="1" source="mPQyHkxRcnNyKBoM3Fjj-6" target="mPQyHkxRcnNyKBoM3Fjj-5">
          <mxGeometry width="160" relative="1" as="geometry">
            <mxPoint x="190" y="250" as="sourcePoint" />
            <mxPoint x="350" y="250" as="targetPoint" />
          </mxGeometry>
        </mxCell>
        <mxCell id="mPQyHkxRcnNyKBoM3Fjj-15" value="" style="endArrow=block;dashed=1;endFill=0;endSize=12;html=1;rounded=0;entryX=0.573;entryY=1.054;entryDx=0;entryDy=0;entryPerimeter=0;" edge="1" parent="1" source="mPQyHkxRcnNyKBoM3Fjj-10" target="mPQyHkxRcnNyKBoM3Fjj-5">
          <mxGeometry width="160" relative="1" as="geometry">
            <mxPoint x="192.38487680543756" y="200" as="sourcePoint" />
            <mxPoint x="221.64" y="177.79600000000005" as="targetPoint" />
          </mxGeometry>
        </mxCell>
        <mxCell id="mPQyHkxRcnNyKBoM3Fjj-16" value="&lt;&lt;abs&gt;&gt;&#xa;Hetrogeneous" style="swimlane;fontStyle=2;childLayout=stackLayout;horizontal=1;startSize=26;fillColor=none;horizontalStack=0;resizeParent=1;resizeParentMax=0;resizeLast=0;collapsible=1;marginBottom=0;" vertex="1" parent="1">
          <mxGeometry x="190" y="290" width="140" height="78" as="geometry" />
        </mxCell>
        <mxCell id="mPQyHkxRcnNyKBoM3Fjj-17" value="GetUnit() string" style="text;strokeColor=none;fillColor=none;align=left;verticalAlign=top;spacingLeft=4;spacingRight=4;overflow=hidden;rotatable=0;points=[[0,0.5],[1,0.5]];portConstraint=eastwest;fontStyle=0" vertex="1" parent="mPQyHkxRcnNyKBoM3Fjj-16">
          <mxGeometry y="26" width="140" height="26" as="geometry" />
        </mxCell>
        <mxCell id="mPQyHkxRcnNyKBoM3Fjj-18" value="GetPradigm() string" style="text;strokeColor=none;fillColor=none;align=left;verticalAlign=top;spacingLeft=4;spacingRight=4;overflow=hidden;rotatable=0;points=[[0,0.5],[1,0.5]];portConstraint=eastwest;fontStyle=0" vertex="1" parent="mPQyHkxRcnNyKBoM3Fjj-16">
          <mxGeometry y="52" width="140" height="26" as="geometry" />
        </mxCell>
        <mxCell id="mPQyHkxRcnNyKBoM3Fjj-19" value="" style="endArrow=block;dashed=1;endFill=0;endSize=12;html=1;rounded=0;" edge="1" parent="1" source="mPQyHkxRcnNyKBoM3Fjj-16">
          <mxGeometry width="160" relative="1" as="geometry">
            <mxPoint x="190" y="250" as="sourcePoint" />
            <mxPoint x="330" y="270" as="targetPoint" />
          </mxGeometry>
        </mxCell>
        <mxCell id="mPQyHkxRcnNyKBoM3Fjj-20" value="" style="endArrow=block;dashed=1;endFill=0;endSize=12;html=1;rounded=0;entryX=0.779;entryY=1.085;entryDx=0;entryDy=0;entryPerimeter=0;" edge="1" parent="1" source="mPQyHkxRcnNyKBoM3Fjj-16" target="mPQyHkxRcnNyKBoM3Fjj-8">
          <mxGeometry width="160" relative="1" as="geometry">
            <mxPoint x="316.271186440678" y="300" as="sourcePoint" />
            <mxPoint x="340" y="280" as="targetPoint" />
          </mxGeometry>
        </mxCell>
        <mxCell id="mPQyHkxRcnNyKBoM3Fjj-21" value="Procedural" style="swimlane;fontStyle=0;childLayout=stackLayout;horizontal=1;startSize=26;fillColor=none;horizontalStack=0;resizeParent=1;resizeParentMax=0;resizeLast=0;collapsible=1;marginBottom=0;" vertex="1" parent="1">
          <mxGeometry x="40" y="330" width="140" height="78" as="geometry" />
        </mxCell>
        <mxCell id="mPQyHkxRcnNyKBoM3Fjj-22" value="GetUnit() string" style="text;strokeColor=none;fillColor=none;align=left;verticalAlign=top;spacingLeft=4;spacingRight=4;overflow=hidden;rotatable=0;points=[[0,0.5],[1,0.5]];portConstraint=eastwest;fontStyle=0" vertex="1" parent="mPQyHkxRcnNyKBoM3Fjj-21">
          <mxGeometry y="26" width="140" height="26" as="geometry" />
        </mxCell>
        <mxCell id="mPQyHkxRcnNyKBoM3Fjj-23" value="GetPradigm() string" style="text;strokeColor=none;fillColor=none;align=left;verticalAlign=top;spacingLeft=4;spacingRight=4;overflow=hidden;rotatable=0;points=[[0,0.5],[1,0.5]];portConstraint=eastwest;fontStyle=0" vertex="1" parent="mPQyHkxRcnNyKBoM3Fjj-21">
          <mxGeometry y="52" width="140" height="26" as="geometry" />
        </mxCell>
        <mxCell id="mPQyHkxRcnNyKBoM3Fjj-24" value="ObjectOrientInte" style="swimlane;fontStyle=0;childLayout=stackLayout;horizontal=1;startSize=26;fillColor=none;horizontalStack=0;resizeParent=1;resizeParentMax=0;resizeLast=0;collapsible=1;marginBottom=0;" vertex="1" parent="1">
          <mxGeometry x="403" y="330" width="140" height="78" as="geometry" />
        </mxCell>
        <mxCell id="mPQyHkxRcnNyKBoM3Fjj-25" value="GetUnit() string" style="text;strokeColor=none;fillColor=none;align=left;verticalAlign=top;spacingLeft=4;spacingRight=4;overflow=hidden;rotatable=0;points=[[0,0.5],[1,0.5]];portConstraint=eastwest;fontStyle=0" vertex="1" parent="mPQyHkxRcnNyKBoM3Fjj-24">
          <mxGeometry y="26" width="140" height="26" as="geometry" />
        </mxCell>
        <mxCell id="mPQyHkxRcnNyKBoM3Fjj-26" value="GetPradigm() string" style="text;strokeColor=none;fillColor=none;align=left;verticalAlign=top;spacingLeft=4;spacingRight=4;overflow=hidden;rotatable=0;points=[[0,0.5],[1,0.5]];portConstraint=eastwest;fontStyle=0" vertex="1" parent="mPQyHkxRcnNyKBoM3Fjj-24">
          <mxGeometry y="52" width="140" height="26" as="geometry" />
        </mxCell>
        <mxCell id="mPQyHkxRcnNyKBoM3Fjj-29" value="LangC" style="swimlane;fontStyle=0;childLayout=stackLayout;horizontal=1;startSize=26;fillColor=none;horizontalStack=0;resizeParent=1;resizeParentMax=0;resizeLast=0;collapsible=1;marginBottom=0;" vertex="1" parent="1">
          <mxGeometry x="13" y="455" width="140" height="52" as="geometry" />
        </mxCell>
        <mxCell id="mPQyHkxRcnNyKBoM3Fjj-30" value="GetName() string" style="text;strokeColor=none;fillColor=none;align=left;verticalAlign=top;spacingLeft=4;spacingRight=4;overflow=hidden;rotatable=0;points=[[0,0.5],[1,0.5]];portConstraint=eastwest;fontStyle=0" vertex="1" parent="mPQyHkxRcnNyKBoM3Fjj-29">
          <mxGeometry y="26" width="140" height="26" as="geometry" />
        </mxCell>
        <mxCell id="mPQyHkxRcnNyKBoM3Fjj-32" value="LangCobol" style="swimlane;fontStyle=0;childLayout=stackLayout;horizontal=1;startSize=26;fillColor=none;horizontalStack=0;resizeParent=1;resizeParentMax=0;resizeLast=0;collapsible=1;marginBottom=0;" vertex="1" parent="1">
          <mxGeometry x="61" y="559" width="140" height="65" as="geometry" />
        </mxCell>
        <mxCell id="mPQyHkxRcnNyKBoM3Fjj-33" value="GetName() string&#xa;GetUnit() string" style="text;strokeColor=none;fillColor=none;align=left;verticalAlign=top;spacingLeft=4;spacingRight=4;overflow=hidden;rotatable=0;points=[[0,0.5],[1,0.5]];portConstraint=eastwest;fontStyle=0" vertex="1" parent="mPQyHkxRcnNyKBoM3Fjj-32">
          <mxGeometry y="26" width="140" height="39" as="geometry" />
        </mxCell>
        <mxCell id="mPQyHkxRcnNyKBoM3Fjj-35" value="Extends" style="endArrow=block;endSize=16;endFill=0;html=1;rounded=0;exitX=0.5;exitY=0;exitDx=0;exitDy=0;" edge="1" parent="1" source="mPQyHkxRcnNyKBoM3Fjj-29">
          <mxGeometry x="0.6227" y="-28" width="160" relative="1" as="geometry">
            <mxPoint x="130.18421052631584" y="343.0000000000001" as="sourcePoint" />
            <mxPoint x="91" y="416" as="targetPoint" />
            <mxPoint y="1" as="offset" />
          </mxGeometry>
        </mxCell>
        <mxCell id="mPQyHkxRcnNyKBoM3Fjj-36" value="Extends" style="endArrow=block;endSize=16;endFill=0;html=1;rounded=0;exitX=0.75;exitY=0;exitDx=0;exitDy=0;entryX=0.815;entryY=1.121;entryDx=0;entryDy=0;entryPerimeter=0;" edge="1" parent="1" source="mPQyHkxRcnNyKBoM3Fjj-32" target="mPQyHkxRcnNyKBoM3Fjj-23">
          <mxGeometry x="0.0587" y="-17" width="160" relative="1" as="geometry">
            <mxPoint x="96" y="468" as="sourcePoint" />
            <mxPoint x="104" y="429" as="targetPoint" />
            <mxPoint as="offset" />
            <Array as="points" />
          </mxGeometry>
        </mxCell>
        <mxCell id="mPQyHkxRcnNyKBoM3Fjj-37" value="LangJava" style="swimlane;fontStyle=0;childLayout=stackLayout;horizontal=1;startSize=26;fillColor=none;horizontalStack=0;resizeParent=1;resizeParentMax=0;resizeLast=0;collapsible=1;marginBottom=0;" vertex="1" parent="1">
          <mxGeometry x="350" y="455" width="140" height="52" as="geometry" />
        </mxCell>
        <mxCell id="mPQyHkxRcnNyKBoM3Fjj-38" value="GetName() string" style="text;strokeColor=none;fillColor=none;align=left;verticalAlign=top;spacingLeft=4;spacingRight=4;overflow=hidden;rotatable=0;points=[[0,0.5],[1,0.5]];portConstraint=eastwest;fontStyle=0" vertex="1" parent="mPQyHkxRcnNyKBoM3Fjj-37">
          <mxGeometry y="26" width="140" height="26" as="geometry" />
        </mxCell>
        <mxCell id="mPQyHkxRcnNyKBoM3Fjj-39" value="LangC#" style="swimlane;fontStyle=0;childLayout=stackLayout;horizontal=1;startSize=26;fillColor=none;horizontalStack=0;resizeParent=1;resizeParentMax=0;resizeLast=0;collapsible=1;marginBottom=0;" vertex="1" parent="1">
          <mxGeometry x="507" y="455" width="140" height="52" as="geometry" />
        </mxCell>
        <mxCell id="mPQyHkxRcnNyKBoM3Fjj-40" value="GetName() string" style="text;strokeColor=none;fillColor=none;align=left;verticalAlign=top;spacingLeft=4;spacingRight=4;overflow=hidden;rotatable=0;points=[[0,0.5],[1,0.5]];portConstraint=eastwest;fontStyle=0" vertex="1" parent="mPQyHkxRcnNyKBoM3Fjj-39">
          <mxGeometry y="26" width="140" height="26" as="geometry" />
        </mxCell>
        <mxCell id="mPQyHkxRcnNyKBoM3Fjj-41" value="Extends" style="endArrow=block;endSize=16;endFill=0;html=1;rounded=0;exitX=0.5;exitY=0;exitDx=0;exitDy=0;entryX=0.263;entryY=1.077;entryDx=0;entryDy=0;entryPerimeter=0;" edge="1" parent="1" source="mPQyHkxRcnNyKBoM3Fjj-37" target="mPQyHkxRcnNyKBoM3Fjj-26">
          <mxGeometry x="0.0587" y="-17" width="160" relative="1" as="geometry">
            <mxPoint x="222.0000000000001" y="546" as="sourcePoint" />
            <mxPoint x="167.10000000000002" y="424.14599999999996" as="targetPoint" />
            <mxPoint as="offset" />
            <Array as="points" />
          </mxGeometry>
        </mxCell>
        <mxCell id="mPQyHkxRcnNyKBoM3Fjj-42" value="Extends" style="endArrow=block;endSize=16;endFill=0;html=1;rounded=0;exitX=0.25;exitY=0;exitDx=0;exitDy=0;" edge="1" parent="1" source="mPQyHkxRcnNyKBoM3Fjj-39">
          <mxGeometry x="0.0587" y="-17" width="160" relative="1" as="geometry">
            <mxPoint x="433" y="468" as="sourcePoint" />
            <mxPoint x="481" y="416" as="targetPoint" />
            <mxPoint as="offset" />
            <Array as="points" />
          </mxGeometry>
        </mxCell>
        <mxCell id="mPQyHkxRcnNyKBoM3Fjj-43" value="LangCPP" style="swimlane;fontStyle=0;childLayout=stackLayout;horizontal=1;startSize=26;fillColor=none;horizontalStack=0;resizeParent=1;resizeParentMax=0;resizeLast=0;collapsible=1;marginBottom=0;" vertex="1" parent="1">
          <mxGeometry x="234" y="533" width="140" height="65" as="geometry" />
        </mxCell>
        <mxCell id="mPQyHkxRcnNyKBoM3Fjj-44" value="GetName() string" style="text;strokeColor=none;fillColor=none;align=left;verticalAlign=top;spacingLeft=4;spacingRight=4;overflow=hidden;rotatable=0;points=[[0,0.5],[1,0.5]];portConstraint=eastwest;fontStyle=0" vertex="1" parent="mPQyHkxRcnNyKBoM3Fjj-43">
          <mxGeometry y="26" width="140" height="39" as="geometry" />
        </mxCell>
        <mxCell id="mPQyHkxRcnNyKBoM3Fjj-45" value="Extends" style="endArrow=block;endSize=16;endFill=0;html=1;rounded=0;exitX=0.25;exitY=0;exitDx=0;exitDy=0;entryX=0.528;entryY=1.077;entryDx=0;entryDy=0;entryPerimeter=0;" edge="1" parent="1" source="mPQyHkxRcnNyKBoM3Fjj-43" target="mPQyHkxRcnNyKBoM3Fjj-18">
          <mxGeometry width="160" relative="1" as="geometry">
            <mxPoint x="156" y="260" as="sourcePoint" />
            <mxPoint x="316" y="260" as="targetPoint" />
          </mxGeometry>
        </mxCell>
        <mxCell id="mPQyHkxRcnNyKBoM3Fjj-46" value="" style="endArrow=block;dashed=1;endFill=0;endSize=12;html=1;rounded=0;entryX=0.527;entryY=1.055;entryDx=0;entryDy=0;entryPerimeter=0;exitX=0.415;exitY=0;exitDx=0;exitDy=0;exitPerimeter=0;" edge="1" parent="1" source="mPQyHkxRcnNyKBoM3Fjj-21" target="mPQyHkxRcnNyKBoM3Fjj-8">
          <mxGeometry width="160" relative="1" as="geometry">
            <mxPoint x="213.29559748427664" y="203" as="sourcePoint" />
            <mxPoint x="254.17999999999995" y="179.9899999999999" as="targetPoint" />
          </mxGeometry>
        </mxCell>
        <mxCell id="mPQyHkxRcnNyKBoM3Fjj-47" value="" style="endArrow=block;dashed=1;endFill=0;endSize=12;html=1;rounded=0;entryX=0.391;entryY=1.143;entryDx=0;entryDy=0;entryPerimeter=0;exitX=0.337;exitY=-0.015;exitDx=0;exitDy=0;exitPerimeter=0;" edge="1" parent="1" source="mPQyHkxRcnNyKBoM3Fjj-24" target="mPQyHkxRcnNyKBoM3Fjj-12">
          <mxGeometry width="160" relative="1" as="geometry">
            <mxPoint x="333" y="207.69795037756205" as="sourcePoint" />
            <mxPoint x="273.2199999999999" y="178.404" as="targetPoint" />
          </mxGeometry>
        </mxCell>
      </root>
    </mxGraphModel>
  </diagram>
</mxfile>
